<svg 
 xmlns="http://www.w3.org/2000/svg"
 xmlns:xlink="http://www.w3.org/1999/xlink"
 width="14px" height="17px">
<path fill-rule="evenodd"  fill="rgb(120, 120, 120)"
 d="M7.191,16.967 C7.129,16.989 7.064,16.1000 6.1000,16.1000 C6.935,16.1000 6.871,16.989 6.809,16.967 C-0.172,14.498 -0.062,8.649 0.018,4.377 C0.026,3.918 0.034,3.484 0.034,3.065 C0.034,2.736 0.295,2.470 0.618,2.470 C3.112,2.470 5.010,1.738 6.593,0.168 C6.820,-0.056 7.180,-0.056 7.406,0.168 C8.989,1.738 10.888,2.470 13.383,2.470 C13.705,2.470 13.966,2.736 13.966,3.065 C13.966,3.484 13.974,3.918 13.983,4.377 C14.062,8.648 14.172,14.498 7.191,16.967 ZM12.816,4.400 C12.812,4.142 12.807,3.892 12.804,3.648 C10.467,3.547 8.599,2.825 6.1000,1.403 C5.401,2.825 3.533,3.547 1.197,3.648 C1.193,3.893 1.189,4.142 1.184,4.400 C1.104,8.694 1.013,13.555 6.1000,15.774 C12.987,13.555 12.897,8.694 12.816,4.400 ZM6.606,10.567 C6.492,10.683 6.343,10.741 6.193,10.741 C6.044,10.741 5.895,10.683 5.781,10.567 L4.167,8.921 C3.940,8.688 3.940,8.312 4.167,8.079 C4.395,7.847 4.764,7.847 4.992,8.079 L6.193,9.305 L9.008,6.433 C9.236,6.200 9.605,6.200 9.833,6.433 C10.061,6.665 10.061,7.042 9.833,7.275 L6.606,10.567 Z"/>
</svg>