<svg 
 xmlns="http://www.w3.org/2000/svg"
 xmlns:xlink="http://www.w3.org/1999/xlink"
 width="64px" height="64px">
<path fill-rule="evenodd"  fill="rgb(49, 114, 185)"
 d="M63.810,15.073 L53.332,48.146 L53.579,48.926 C53.902,49.944 53.809,51.028 53.317,51.976 C52.924,52.732 52.316,53.329 51.570,53.704 C51.567,53.715 51.565,53.726 51.561,53.737 L49.194,61.208 C48.655,62.910 47.076,63.1000 45.379,63.1000 C44.979,63.1000 44.574,63.939 44.173,63.813 L31.1000,59.957 L19.826,63.813 C19.426,63.939 19.020,63.1000 18.621,63.1000 C16.924,63.1000 15.345,62.910 14.805,61.207 L0.189,15.074 C-0.133,14.055 -0.040,12.972 0.452,12.023 C0.944,11.075 1.776,10.375 2.795,10.052 L33.943,0.187 C36.045,-0.479 38.297,0.690 38.963,2.792 L39.040,3.034 C39.049,3.036 39.058,3.037 39.066,3.040 L61.205,10.053 C62.224,10.375 63.056,11.075 63.548,12.023 C64.040,12.972 64.133,14.055 63.810,15.073 ZM44.978,61.270 C45.680,61.493 46.431,61.103 46.653,60.402 L48.444,54.749 L36.416,58.558 L44.978,61.270 ZM36.421,3.598 C36.199,2.897 35.449,2.507 34.748,2.729 L34.748,2.729 L3.600,12.595 C3.260,12.702 2.983,12.935 2.819,13.252 C2.655,13.568 2.624,13.929 2.731,14.269 L17.347,60.402 C17.569,61.103 18.320,61.493 19.021,61.271 L31.560,57.299 C31.589,57.289 31.617,57.280 31.646,57.272 L50.169,51.405 C50.508,51.298 50.786,51.064 50.950,50.748 C51.114,50.432 51.145,50.071 51.037,49.731 L36.421,3.598 ZM48.497,32.884 L53.446,17.264 L42.445,13.780 L48.497,32.884 ZM61.181,13.251 C61.017,12.935 60.740,12.702 60.400,12.595 L40.024,6.141 L41.470,10.702 C41.558,10.712 41.646,10.730 41.733,10.758 L54.251,14.723 C54.930,14.938 55.484,15.405 55.812,16.036 C56.140,16.669 56.203,17.391 55.988,18.070 L49.896,37.298 L51.934,43.732 L61.269,14.268 C61.376,13.928 61.345,13.568 61.181,13.251 ZM42.436,44.280 L21.240,50.994 C20.974,51.078 20.703,51.118 20.437,51.118 C19.305,51.118 18.252,50.391 17.893,49.257 L8.012,18.070 C7.797,17.391 7.859,16.669 8.188,16.036 C8.516,15.404 9.070,14.938 9.749,14.723 L30.945,8.009 C32.347,7.565 33.849,8.344 34.293,9.746 L44.173,40.933 C44.388,41.612 44.326,42.334 43.998,42.966 C43.670,43.598 43.115,44.065 42.436,44.280 ZM31.751,10.552 L21.979,13.646 L10.554,17.265 L20.435,48.451 L41.631,41.738 L31.751,10.552 ZM18.110,31.056 C17.712,29.802 17.827,28.468 18.433,27.301 C19.039,26.133 20.063,25.272 21.317,24.874 C22.393,24.533 23.548,24.582 24.579,24.978 C25.194,24.060 26.110,23.355 27.186,23.014 C28.440,22.617 29.774,22.731 30.941,23.337 C32.109,23.943 32.971,24.967 33.368,26.221 C33.783,27.532 33.597,28.948 32.855,30.106 L29.642,35.127 C29.296,35.668 28.768,36.072 28.156,36.267 C27.886,36.352 27.606,36.395 27.325,36.395 C26.971,36.395 26.617,36.327 26.285,36.191 L20.766,33.937 C19.493,33.416 18.525,32.367 18.110,31.056 ZM20.652,30.251 C20.827,30.804 21.237,31.248 21.775,31.468 L27.293,33.722 C27.312,33.730 27.332,33.731 27.351,33.724 C27.369,33.719 27.385,33.706 27.396,33.690 L30.609,28.668 C30.923,28.178 31.002,27.580 30.826,27.026 C30.644,26.452 30.249,25.982 29.713,25.704 C29.178,25.426 28.567,25.374 27.991,25.556 C27.230,25.798 26.663,26.406 26.477,27.185 C26.368,27.640 26.028,28.004 25.583,28.146 C25.137,28.287 24.650,28.184 24.299,27.876 C23.877,27.504 23.351,27.309 22.811,27.309 C22.581,27.309 22.350,27.344 22.122,27.416 C21.547,27.598 21.078,27.993 20.800,28.529 C20.522,29.064 20.469,29.676 20.652,30.251 Z"/>
</svg>