<svg 
 xmlns="http://www.w3.org/2000/svg"
 xmlns:xlink="http://www.w3.org/1999/xlink"
 width="86px" height="64px">
<path fill-rule="evenodd"  fill="rgb(49, 114, 185)"
 d="M83.868,30.541 L77.471,30.541 C77.264,30.541 77.069,30.503 76.880,30.448 C76.008,31.946 74.950,33.348 73.693,34.606 L44.972,63.374 C44.554,63.791 44.009,63.1000 43.463,63.1000 C42.917,63.1000 42.372,63.791 41.955,63.374 L13.233,34.606 C12.174,33.545 11.268,32.390 10.494,31.175 C10.319,31.221 10.139,31.254 9.950,31.254 L2.132,31.254 C0.955,31.254 0.000,30.298 0.000,29.118 C0.000,27.938 0.955,26.982 2.132,26.982 L8.472,26.982 C5.987,19.859 7.558,11.620 13.233,5.938 C17.055,2.109 22.138,0.000 27.544,0.000 C32.950,0.000 38.033,2.109 41.856,5.938 L43.463,7.547 L45.070,5.938 C48.893,2.109 53.975,0.000 59.382,0.000 C64.788,0.000 69.871,2.109 73.693,5.938 C77.517,9.766 79.622,14.857 79.622,20.272 C79.622,22.336 79.311,24.352 78.721,26.270 L83.868,26.270 C85.045,26.270 86.000,27.227 86.000,28.406 C86.000,29.586 85.045,30.541 83.868,30.541 ZM16.248,31.586 L43.463,58.844 L70.678,31.586 C71.230,31.033 71.716,30.439 72.170,29.830 L55.736,29.830 C55.179,29.830 54.373,29.573 54.143,29.064 L52.046,24.443 L45.404,43.189 C45.204,43.755 44.670,44.135 44.069,44.136 C44.069,44.136 44.068,44.136 44.066,44.136 C43.467,44.136 42.933,43.760 42.729,43.197 L34.653,20.798 L30.426,29.794 C30.192,30.292 29.990,30.541 29.439,30.541 L15.306,30.541 C15.605,30.898 15.913,31.250 16.248,31.586 ZM70.678,8.957 C67.661,5.936 63.649,4.271 59.381,4.271 C55.114,4.271 51.102,5.936 48.085,8.957 L44.970,12.077 C44.137,12.911 42.788,12.911 41.955,12.077 L38.841,8.957 C35.823,5.936 31.811,4.271 27.544,4.271 C23.277,4.271 19.265,5.936 16.248,8.957 C11.174,14.040 10.236,21.718 13.429,27.763 L28.237,27.763 L33.539,16.479 C33.784,15.958 34.278,15.634 34.892,15.663 C35.466,15.690 35.967,16.061 36.162,16.601 L44.053,38.487 L50.543,20.168 C50.736,19.621 51.242,19.247 51.822,19.222 C52.415,19.205 52.937,19.527 53.176,20.056 L56.352,27.051 L73.832,27.051 C76.596,21.124 75.557,13.844 70.678,8.957 Z"/>
</svg>