<svg 
 xmlns="http://www.w3.org/2000/svg"
 xmlns:xlink="http://www.w3.org/1999/xlink"
 width="65px" height="65px">
<path fill-rule="evenodd"  fill="rgb(49, 114, 185)"
 d="M42.613,30.990 L45.475,28.128 C45.644,28.141 45.815,28.148 45.986,28.148 C47.692,28.148 49.296,27.484 50.502,26.278 L53.227,23.553 C55.717,21.063 55.717,17.012 53.227,14.522 L40.574,1.871 C39.368,0.664 37.764,-0.000 36.058,-0.000 C34.352,-0.000 32.748,0.664 31.542,1.870 L28.817,4.595 C27.443,5.969 26.827,7.819 26.969,9.619 L9.617,26.969 C9.448,26.955 9.278,26.949 9.106,26.949 C7.401,26.949 5.797,27.613 4.591,28.819 L1.865,31.544 C-0.625,34.034 -0.625,38.085 1.865,40.575 L14.519,53.227 C15.725,54.433 17.329,55.097 19.034,55.097 C20.740,55.097 22.344,54.433 23.550,53.227 L26.276,50.502 C27.482,49.295 28.146,47.692 28.146,45.986 C28.146,45.815 28.139,45.644 28.126,45.475 L30.988,42.613 L51.507,63.130 C52.713,64.336 54.317,64.1000 56.023,64.1000 C57.729,64.1000 59.332,64.336 60.539,63.130 L63.131,60.537 C65.621,58.047 65.621,53.996 63.131,51.506 L42.613,30.990 ZM27.703,39.244 L22.548,44.398 L22.948,44.798 C23.604,45.454 23.604,46.518 22.948,47.175 L20.223,49.900 C19.895,50.228 19.465,50.392 19.034,50.392 C18.604,50.392 18.174,50.228 17.846,49.900 L5.193,37.247 C4.536,36.591 4.536,35.527 5.193,34.871 L7.918,32.146 C8.246,31.818 8.676,31.654 9.106,31.654 C9.536,31.654 9.967,31.818 10.295,32.146 L10.695,32.546 L32.544,10.699 L32.144,10.299 C31.488,9.642 31.488,8.578 32.144,7.922 L34.870,5.197 C35.198,4.869 35.628,4.705 36.058,4.705 C36.488,4.705 36.918,4.869 37.246,5.197 L49.900,17.850 C50.556,18.506 50.556,19.569 49.900,20.226 L47.175,22.951 C46.846,23.279 46.416,23.443 45.986,23.443 C45.556,23.443 45.126,23.279 44.798,22.951 L44.398,22.551 L39.243,27.706 L35.783,31.165 L31.164,35.784 L27.703,39.244 ZM59.804,57.210 L57.211,59.803 C56.883,60.131 56.453,60.295 56.023,60.295 C55.593,60.295 55.163,60.131 54.834,59.803 L34.316,39.286 L39.285,34.317 L59.804,54.834 C60.460,55.490 60.460,56.554 59.804,57.210 Z"/>
</svg>