<svg 
 xmlns="http://www.w3.org/2000/svg"
 xmlns:xlink="http://www.w3.org/1999/xlink"
 width="68px" height="66px">
<path fill-rule="evenodd"  fill="rgb(49, 114, 185)"
 d="M50.393,0.004 C40.438,-0.212 32.146,7.638 31.900,17.512 L31.776,22.483 C31.742,23.839 32.833,24.973 34.200,25.002 C35.567,25.032 36.713,23.947 36.746,22.591 L36.871,17.620 C37.049,10.471 43.062,4.778 50.270,4.934 C57.478,5.091 63.201,11.038 63.023,18.187 C62.844,25.335 56.831,31.029 49.623,30.872 L18.500,30.197 C8.545,29.981 0.253,37.831 0.007,47.705 C-0.240,57.579 7.651,65.780 17.607,65.996 C27.562,66.211 35.854,58.362 36.100,48.488 L36.223,43.572 C36.257,42.215 35.166,41.082 33.799,41.053 C32.432,41.023 31.286,42.108 31.252,43.464 L31.129,48.380 C30.951,55.529 24.938,61.222 17.730,61.066 C10.522,60.909 4.799,54.962 4.977,47.813 C5.156,40.664 11.169,34.971 18.377,35.127 L49.500,35.802 C59.456,36.018 67.747,28.169 67.994,18.295 C68.240,8.421 60.349,0.220 50.393,0.004 Z"/>
</svg>